<svg xmlns="http://www.w3.org/2000/svg" viewBox="0 0 1117.11 992.81"><defs><style>.cls-1{fill:#f8f3f9;}.cls-1,.cls-11,.cls-12,.cls-13,.cls-14,.cls-15,.cls-16,.cls-17,.cls-18,.cls-19,.cls-2,.cls-21,.cls-22,.cls-23,.cls-24,.cls-3,.cls-4,.cls-5,.cls-6,.cls-7,.cls-8,.cls-9{stroke:#000;}.cls-1,.cls-10,.cls-11,.cls-12,.cls-13,.cls-14,.cls-15,.cls-16,.cls-17,.cls-18,.cls-19,.cls-2,.cls-20,.cls-21,.cls-22,.cls-23,.cls-24,.cls-3,.cls-4,.cls-5,.cls-6,.cls-7,.cls-8,.cls-9{stroke-miterlimit:10;}.cls-1,.cls-10,.cls-14,.cls-16,.cls-17,.cls-18,.cls-2,.cls-22,.cls-24,.cls-3,.cls-5{stroke-width:2px;}.cls-11,.cls-2{fill:#2e2d2c;}.cls-13,.cls-20,.cls-21,.cls-23,.cls-3,.cls-4{fill:none;}.cls-11,.cls-12,.cls-15,.cls-4,.cls-6,.cls-7,.cls-8,.cls-9{stroke-width:3px;}.cls-5{fill:#790726;}.cls-6{fill:#8f2e3e;}.cls-7{fill:#a53643;}.cls-8{fill:#93092b;}.cls-9{fill:#790e17;}.cls-10,.cls-24{fill:#c72940;}.cls-10{stroke:#790e17;}.cls-12,.cls-14{fill:#ebebeb;}.cls-13{stroke-width:6px;}.cls-15{fill:#fee9d6;}.cls-16{fill:#fff;}.cls-17{fill:#fdddc0;}.cls-18{fill:#ffe864;}.cls-20{stroke:#fff;}.cls-20,.cls-21{stroke-width:0.25px;}.cls-22{fill:#ce588d;}</style></defs><title>diavolo</title><g id="правая_перчатка" data-name="правая перчатка"><polygon class="cls-1" points="200.15 414.14 210.05 400.39 212.8 380.04 209.68 372.15 200.15 372.15 197.58 381.69 195.01 367.75 188.78 360.41 178.14 355.28 168.24 355.28 162.74 355.28 162.74 349.41 155.77 343.54 146.23 343.54 134.5 347.21 125.33 352.71 118.73 358.58 110.66 362.25 100.39 360.05 96.72 351.61 96.72 340.61 89.02 334.74 84.25 332.54 79.12 332.54 71.42 338.04 64.08 345.74 59.31 354.55 57.48 366.28 60.05 373.34 65.18 380.22 75.82 384.99 86.82 384.62 97.45 379.49 101.49 379.85 105.89 380.59 110.29 377.29 101.12 383.52 98.19 389.02 97.82 394.15 100.39 396.36 94.15 406.63 90.49 416.16 81.69 426.8 75.82 432.66 72.15 436.33 64.08 434.13 54.91 436.33 47.94 442.2 44.64 448.43 48.31 451 54.18 453.94 43.18 453.94 34.37 453.94 24.47 457.24 18.6 460.17 14.94 463.47 13.1 469.34 13.04 474.53 6.13 478.88 1 484.74 1 492.81 5.4 496.85 12.74 496.85 18.24 498.68 18.24 504.18 23.74 506.75 29.97 506.75 32.91 501.25 38.04 496.85 45.38 490.98 49.04 486.21 56.75 484.74 67.02 484.01 77.28 481.81 81.32 476.31 87.55 472.27 91.95 474.53 98.92 474.53 101.86 470.44 106.9 468.61 115.43 467.87 120.56 469.71 127.89 469.71 134.13 463.1 146.6 451.37 157.6 442.93 162.37 435.6 173 437.06 183.64 435.6 195.01 424.6 200.15 414.14"/></g><g id="Слой_39" data-name="Слой 39"><ellipse class="cls-2" cx="536.82" cy="273.31" rx="67.78" ry="40.16"/></g><g id="правая_перчатка_-_линии" data-name="правая перчатка - линии"><polyline class="cls-3" points="56.01 455.04 65.18 459.44 73.62 466.04 81.32 468.61 87.55 472.27"/><polyline class="cls-3" points="120.93 438.9 112.49 435.23 105.16 438.9 100.39 442.93 94.89 442.93 90.85 442.93 90.85 448.43 90.85 451.74 85.72 443.48 80.95 438.53 75.82 437.43 72.15 436.33"/><polyline class="cls-3" points="13.04 474.53 16.77 481.07 27.41 481.07 35.47 481.07 42.08 481.07 47.94 481.07 52.34 483.28 54.69 485.13"/><polyline class="cls-3" points="18.24 498.68 24.47 491.71 29.61 487.68 33.87 485.13 37.67 482.91 42.08 481.07"/><polyline class="cls-3" points="126.06 392.69 130.1 383.15 137.06 374.72 145.13 368.12 151.37 361.15 157.6 358.21 162.74 355.28"/><polyline class="cls-4" points="190.24 401.49 184.74 411.03 177.04 419.64 170.81 423.5 166.04 428.26 162.74 433.76 162.37 435.6"/></g><g id="левая_перчатка" data-name="левая перчатка"><polygon class="cls-1" points="905.04 395.26 905.04 405.52 909.07 419.09 916.04 429.73 922.64 437.43 932.18 444.4 940.61 441.83 940.61 435.23 946.11 435.23 948.31 430.83 968.12 449.17 985.72 465.31 1002.23 471.54 1019.46 474.53 1026.43 474.53 1032.67 479.98 1043.3 479.98 1048.07 477.41 1050.27 483.28 1057.97 483.28 1067.51 478.14 1071.17 479.61 1076.68 487.31 1085.11 493.18 1095.38 493.18 1095.38 499.41 1101.62 503.45 1107.48 503.45 1109.32 498.31 1113.72 491.34 1115.92 483.64 1108.95 480.34 1105.65 474.53 1102.35 470.44 1104.18 461.27 1101.62 456.14 1094.28 453.94 1092.45 449.35 1085.85 447.7 1078.88 447.7 1075.21 442.57 1067.51 441.83 1059.07 441.1 1053.2 440.73 1023.5 405.89 1022.76 357.48 1030.47 349.78 1036.33 342.08 1037.43 333.64 1037.8 323.74 1027.9 314.57 1015.8 311.64 1007.73 313.1 1003.69 316.77 1000.39 321.17 1003.33 326.31 1006.99 330.34 1006.99 336.94 1002.96 344.64 998.19 349.41 991.96 352.71 983.15 348.68 974.72 347.94 965.55 350.14 957.85 357.48 953.45 361.88 948.68 367.38 938.41 369.22 935.11 372.88 923.38 372.52 915.31 379.85 907.61 389.02 905.04 395.26"/></g><g id="левая_перчатка_-_линии" data-name="левая перчатка - линии"><polyline class="cls-4" points="931.1 372.76 931.1 380.59 931.1 389.39 934.38 396.36 938.41 402.96"/><polyline class="cls-4" points="929.61 426.8 934.76 433.03 940.61 435.23"/><polyline class="cls-4" points="943.18 420.19 943.18 426.8 948.31 430.83"/><polyline class="cls-4" points="962.98 367.38 972.89 372.76 983.52 378.02 989.76 383.89 994.16 390.49"/><polyline class="cls-4" points="987.19 398.19 984.62 387.86 978.57 381.69 976.11 374.35"/><polyline class="cls-4" points="1010.48 429 1016.16 433.03 1013.32 440.73 1020.56 445.13 1028.63 448.07 1035.6 452.1 1035.6 459.07 1039.27 460.9 1042.93 455.04 1045.14 449.54 1052.1 447.33 1055.76 440.89"/><polyline class="cls-4" points="1078.88 447.7 1073.38 456.14 1065.31 464.57 1057.24 468.97 1050.27 473.01 1045.5 474.53 1041.1 477.41 1036.33 479.98"/><polyline class="cls-4" points="1067.51 478.14 1075.21 476.31 1084.74 476.31 1089.88 474.53 1096.48 473.01 1102.35 470.44"/><polyline class="cls-4" points="1095.38 493.18 1102.35 489.51 1107.48 485.48 1108.95 480.34"/></g><g id="пиджак_-_фон" data-name="пиджак - фон"><polygon class="cls-5" points="453.57 590.73 457.97 637.68 453.57 673.62 449.17 710.29 443.3 730.1 433.76 736.7 415.43 736.7 397.82 727.9 386.82 718.36 379.49 708.09 379.49 697.09 370.68 697.09 362.62 680.95 362.62 672.15 365.55 663.72 358.21 663.72 358.21 642.81 363.35 622.27 374.35 609.07 385.35 597.34 398.56 586.33 398.56 568 394.15 562.13 394.89 554.06 383.89 541.59 358.21 521.78 345.01 510.78 341.34 523.99 331.81 534.99 314.94 534.99 301.74 529.84 292.2 529.84 276.8 537.92 264.33 541.59 251.86 543.79 234.99 540.12 222.52 529.84 212.8 510.78 199.78 496.85 190.24 479.83 176.31 463.65 176.31 451.74 181.81 451.74 190.24 449.54 199.41 443.48 207.48 435.23 212.8 426.06 219.22 418.54 222.15 409.56 222.15 401.49 218.12 395.62 217.75 390.12 223.62 385.35 232.42 383.89 242.69 383.89 250.02 390.12 255.89 397.82 263.96 401.49 269.46 401.49 271.66 392.69 275.69 386.82 278.26 377.29 277.16 369.22 273.13 360.41 270.56 355.28 273.86 347.94 273.13 340.24 266.53 330.71 259.93 320.07 258.82 307.6 262.86 294.03 270.19 282.3 279 268.73 287.8 260.66 298.43 253.32 304.67 249.29 314.57 251.12 321.91 254.42 332.91 260.29 338.41 262.13 343.54 261.39 355.28 254.79 375.82 245.99 393.06 240.49 413.23 234.62 428.63 231.69 435.6 231.69 440.37 231.69 446.23 225.08 453.57 225.08 454.3 214.45 451.74 202.34 450.27 194.64 453.2 192.81 455.77 195.74 630.34 202.34 632.54 198.68 636.21 201.61 638.78 207.48 638.78 213.35 634.38 222.88 629.98 228.38 627.41 234.25 640.61 236.09 652.35 237.92 661.52 240.12 668.12 242.32 677.29 244.52 682.79 243.42 689.39 244.89 691.96 250.02 698.92 251.12 715.43 258.46 729 263.59 742.2 269.46 750.27 271.29 757.6 263.96 767.14 258.09 773.01 257.73 778.51 254.06 788.78 254.42 793.91 257.36 799.41 262.86 803.45 268.36 815.18 272.76 822.15 277.9 823.62 291.83 825.82 306.14 825.82 315.3 825.82 323.37 822.15 339.14 817.75 348.31 815.55 356.75 814.08 365.92 813.35 373.62 813.35 381.69 811.52 390.12 813.35 397.46 814.82 406.26 825.82 404.79 837.92 404.06 848.92 404.06 861.76 397.46 871.66 391.95 875.33 390.49 883.4 386.27 891.1 384.25 897.34 386.27 899.17 392.69 897.34 402.96 895.13 411.39 894.03 420.19 894.77 422.03 895.87 429 895.5 435.23 899.17 442.93 907.61 447.7 916.41 451.74 923.38 454.3 927.78 456.5 931.1 459.07 929.61 464.75 926.31 470.44 921.54 474.53 919.34 479.98 909.8 488.78 905.04 494.28 901.37 496.11 901.74 500.88 899.17 505.28 894.77 510.05 887.07 514.82 877.9 521.42 872.03 526.92 866.16 527.65 861.39 532.79 857.73 534.25 848.92 532.05 837.92 525.09 830.22 521.78 825.45 521.05 819.95 525.09 813.72 529.84 805.28 533.52 797.21 535.35 787.31 535.35 777.77 535.72 770.07 534.62 762.74 532.42 756.87 527.28 753.2 518.48 751 511.51 746.6 503.08 740.73 512.62 732.66 524.35 723.13 537.19 716.16 545.62 704.42 552.22 695.99 558.09 686.82 559.56 679.12 562.49 674.35 564.33 672.52 568 674.35 569.46 674.72 571.66 673.99 574.6 672.88 578.26 678.75 576.8 682.79 578.63 684.99 582.3 682.42 584.13 681.69 589.27 684.25 595.87 688.65 601.37 693.79 613.11 695.99 624.84 702.23 638.04 704.06 645.38 705.53 653.45 705.53 663.72 699.66 668.12 695.26 666.28 695.26 675.45 694.16 684.25 693.79 692.32 689.39 698.19 684.99 702.96 680.22 705.53 676.55 704.42 675.82 710.29 672.15 718.36 666.65 724.23 658.58 729 653.08 732.66 646.48 736.7 637.31 739.27 631.44 739.27 626.49 722.76 624.29 707.91 620.99 685.35 621.54 673.8 619.34 652.9 619.34 638.59 619.89 620.44 620.99 600.09 622.09 581.93 625.39 567.63 629.24 553.88 632.54 539.02 644.64 509.31 650.7 484.01 656.2 459.25 660.05 436.7 665 415.24 669.95 391.04 672.15 373.43 673.8 358.03 677.1 339.33 676 321.72 666.1 276.06 651.8 260.66 640.79 252.41 624.84 248.01 613.84 245.81 603.94 243.6 466.4 237.55 450.45 248.01 442.75 263.96 436.15 278.26 431.2 296.97 425.15 320.62 417.99 342.63 416.34 363.53 419.09 399.29 421.85 444.4 438.9 507.11 444.4 536.27 450.45 568.18 453.57 590.73"/></g><g id="пиджак_-_светлая_часть_справа" data-name="пиджак - светлая часть справа"><polygon class="cls-6" points="418.36 736.7 431.56 718.36 434.5 684.62 438.9 657.48 438.9 632.54 435.96 599.53 432.3 572.4 428.63 537.92 415.43 506.75 405.89 474.53 397.09 443.48 394.15 401.49 399.29 364.81 399.29 311.27 412.49 277.53 424.23 248.92 437.25 234.44 444.77 228.38 452.83 225.08 453.97 219.23 451.19 192.81 458.71 195.85 465.5 196.11 470.53 216.65 476.31 225.18 478.19 238.07 466.4 237.55 450.45 248.01 436.15 278.26 417.99 342.63 416.34 363.53 421.85 444.4 444.4 536.27 450.45 568.18 457.97 637.68 449.17 710.29 443.3 730.1 433.76 736.7 418.36 736.7"/></g><g id="пиджак_-_светлая_часть_-_правый_рукав" data-name="пиджак - светлая часть - правый рукав"><polygon class="cls-6" points="292.02 415.79 295.32 431.75 293.67 457.6 289.26 474.53 285.96 490.61 273.31 502.71 259.56 514.82 246.91 523.62 230.95 525.82 222.52 529.84 234.99 540.12 251.86 543.79 264.33 541.59 276.8 537.92 292.02 525.82 305.22 510.42 313.47 488.96 317.87 469.71 309.07 446.6 302.47 425.7 292.02 415.79"/></g><g id="пиджак_-_светлая_часть_-_слева" data-name="пиджак - светлая часть - слева"><polygon class="cls-6" points="653.08 732.66 644.64 708.46 640.79 678.75 636.39 645.2 639.69 606.14 642.45 580.83 650.15 554.98 658.95 522.52 669.4 495.01 673.8 478.51 687 425.15 689.75 405.34 689.75 370.68 693.61 353.08 699.66 340.43 699.66 326.67 695.81 307.97 694.16 282.11 689.75 265.61 689.75 254.06 691.96 250.02 689.39 244.89 682.79 243.42 677.29 244.52 652.35 237.92 627.41 234.25 634.38 222.88 638.78 213.35 638.78 207.48 636.21 201.61 632.54 198.68 630.34 202.34 627.41 202.23 627.41 210.05 624.29 219.4 619.34 228.2 612.19 234.25 606.57 238.65 601.14 243.48 624.84 248.01 642.73 253.86 654.15 263.19 666.1 276.06 676 321.72 677.1 339.33 673.8 358.03 672.15 373.43 669.95 391.04 665 415.24 660.05 436.7 656.2 459.25 650.7 484.01 644.64 509.31 632.54 539.02 629.24 553.88 625.39 567.63 622.09 581.93 619.89 620.44 619.34 638.59 619.34 652.9 621.54 673.8 620.99 685.35 624.29 707.91 626.49 722.76 631.44 739.27 637.31 739.27 646.48 736.7 653.08 732.66"/></g><g id="пиджак-_светлая_часть_-_левых_рукав" data-name="пиджак- светлая часть - левых рукав"><polygon class="cls-7" points="820.09 405.56 806.93 425.51 799.78 440.55 796.48 456.5 799.23 474.53 803.08 493.36 808.28 503.45 816.28 514.27 822.99 522.86 827.51 521.37 837.92 525.09 845.43 529.84 854.66 533.49 857.73 534.25 865.87 527.97 872.03 526.92 877.9 521.42 883.14 517.64 870.75 515.37 856.44 517.02 844.89 509.87 832.79 498.86 824.54 481.26 821.24 466.04 817.38 453.75 821.24 435.23 826.74 422.94 830.59 411.94 831.12 404.47 820.09 405.56"/></g><g id="пиджак_-_линии" data-name="пиджак - линии"><polyline class="cls-4" points="417.44 641.35 406.99 657.85 394.15 672.7 387.19 684.25 381.69 694.16 379.49 708.09"/><polyline class="cls-4" points="410.29 606.69 394.15 624.84 384.99 638.04 374.53 652.35 368.48 660.6 365.55 663.72"/><polyline class="cls-4" points="660.05 629.79 665 652.9 668.85 671.05 672.15 688.65 676.55 704.42"/><polyline class="cls-4" points="678.75 606.69 687 629.79 690.86 649.05 693.61 657.85 695.26 666.28"/><polyline class="cls-4" points="305.77 295.87 321.72 277.71 335.48 266.71 343.54 261.39"/><polyline class="cls-4" points="300.27 335.48 296.97 361.88 296.97 383.89 303.02 400.39 305.77 415.79 305.77 431.2"/><polyline class="cls-4" points="317.87 469.71 333.27 486.76 340.43 501.61 346.62 512.12"/><polyline class="cls-4" points="263.96 401.49 276.06 412.49 284.86 415.79 289.26 412.49"/><polyline class="cls-4" points="750.27 271.29 774.48 283.76 790.98 302.47 796.48 323.92 796.48 352.53 793.18 372.76 787.68 390.49 787.13 407.54 782.18 426.8 776.13 446.05 766.77 464.75 757.97 482.91 750.27 495.56 746.6 503.08"/><polyline class="cls-4" points="817.75 348.31 808.03 367.38 800.33 367.38 796.48 372.76"/><polyline class="cls-4" points="812.01 387.86 802.53 396.54 798.68 404.47"/></g><g id="рубашка"><polygon class="cls-8" points="457.23 629.79 486.21 629.79 506.84 628.42 517.84 628.42 528.84 617.14 538.2 607.79 541.22 606.69 543.42 614.66 545.35 623.47 547.55 632.27 561.03 636.39 575.61 635.2 588.81 635.2 598.16 632.54 608.61 626.77 614.66 621.54 620.29 613.02 622.09 581.93 629.24 553.88 632.54 539.02 637.94 525.78 644.64 509.31 650.4 481.53 655.62 461.85 657.12 453.86 660.05 436.7 665.86 411.02 669.56 392.94 672.15 373.43 673.8 358.03 677.1 339.33 675.79 320.76 666.1 276.06 642.73 253.86 624.84 248.01 606.57 244.19 601.14 243.48 583.03 258.46 569.46 271.29 542.32 339.88 525.45 278.63 518.85 256.99 496.11 243.48 478.19 238.07 450.45 248.01 435.07 282.09 425.15 320.62 417.55 348.31 417.55 379.15 419.41 408.64 421.85 444.4 433.26 490.91 445.83 543.79 452.54 587.51 457.23 629.79"/></g><g id="рубашка_-_воротник" data-name="рубашка - воротник"><polygon class="cls-9" points="539.71 330.38 531.32 353.81 482.91 295.87 496.11 261.39 490.21 241.7 518.85 256.99 539.71 330.38"/><polygon class="cls-9" points="545.98 330.63 553.71 353.81 593.67 297.76 580.46 271.29 593.67 249.66 569.46 271.29 545.98 330.63"/></g><g id="рубашка_-_линия" data-name="рубашка - линия"><polyline class="cls-4" points="541.22 606.69 539.71 575.33 529.85 503.45 529.85 448.43 535.54 383.34 542.32 339.88"/></g><g id="узор"><polygon class="cls-10" points="444.4 348.68 474.66 329.42 491.71 360.78 459.8 383.34 444.4 348.68"/><polygon class="cls-10" points="498.31 371.23 465.31 392.69 491.71 425.15 517.57 401.49 498.31 371.23"/><polygon class="cls-10" points="482.91 325.57 500.51 353.81 516 335.48 498.26 314.24 482.91 325.57"/><polygon class="cls-10" points="526.37 398.19 506.01 367.93 531.32 353.81 536.09 362.98 535 389.52 526.37 398.19"/><polygon class="cls-10" points="429.55 350.33 449.9 383.34 419.09 399.29 416.68 368.46 416.68 355.28 429.55 350.33"/><polygon class="cls-10" points="478.19 431.2 454.85 392.69 424.05 408.64 449.9 449.9 478.19 431.2"/><polygon class="cls-10" points="482.91 441.1 455.95 459.25 473.01 479.79 499.45 464.75 482.91 441.1"/><polygon class="cls-10" points="495.56 431.2 511.31 455.4 529.85 445.5 529.85 425.15 517.57 408.64 495.56 431.2"/><polygon class="cls-10" points="428.53 468.97 444.4 460.44 461.45 485.11 436.17 497.08 428.53 468.97"/><polygon class="cls-10" points="425.06 457.49 439.45 449.9 420.09 418.54 421.46 438.02 425.06 457.49"/><polygon class="cls-10" points="508.21 473.28 477.7 487.31 492.96 523.07 523.62 512.12 508.21 473.28"/><polygon class="cls-10" points="465.31 490.91 482.91 529.84 451.12 539.57 436.17 502.75 465.31 490.91"/><polygon class="cls-10" points="523.62 523.07 536.09 558.28 511.31 569.28 491.71 534.07 523.62 523.07"/><polygon class="cls-10" points="478.19 539.57 499.45 573.68 461.45 587.43 446.28 546.17 478.19 539.57"/><polygon class="cls-10" points="461.45 596.78 500.66 580.28 518.12 614.94 477.7 627.59 461.45 596.78"/><polygon class="cls-10" points="512.71 577.53 529.85 609.99 541.01 602.22 541.01 580.28 538.49 566.45 512.71 577.53"/><polygon class="cls-10" points="526.86 464.75 516 469.71 529.85 506.75 529.85 479.79 529.85 464.75 526.86 464.75"/><polygon class="cls-10" points="439.45 335.48 459.54 324.47 444.4 287.06 429.77 300.88 439.45 335.48"/><polygon class="cls-10" points="491.44 306.07 474.11 316.77 455.95 278.63 495.56 261.39 482.91 295.87 491.44 306.07"/><polygon class="cls-10" points="553.71 360.54 539.71 371.23 535 389.52 544.35 399.29 569.83 371.23 553.71 360.54"/><polygon class="cls-10" points="584.13 376 557.18 402.04 584.13 428.45 613.29 392.69 584.13 376"/><polygon class="cls-10" points="549.47 408.64 574.23 432.02 542.32 455.4 530.76 438.02 532.22 421.3 549.47 408.64"/><polygon class="cls-10" points="582.48 441.1 545.98 464.75 569.83 503.08 601.14 474.53 582.48 441.1"/><polygon class="cls-10" points="625.94 399.29 597.34 432.02 621.54 460.44 650.4 425.15 625.94 399.29"/><polygon class="cls-10" points="585.23 365.18 618.24 387.19 641.89 360.54 608.34 329.42 585.23 365.18"/><polygon class="cls-10" points="631.44 392.69 650.4 415.79 667.66 402.22 671.81 376 673.26 363.04 655.1 358.31 631.44 392.69"/><polygon class="cls-10" points="618.79 316.77 644.1 348.31 662.25 329.42 638.04 292.02 618.79 316.77"/><polygon class="cls-10" points="576.43 358.31 601.14 324.47 584.03 311.27 557.63 348.31 576.43 358.31"/><polygon class="cls-10" points="606.57 309.07 628.14 287.06 586.51 261.39 580.46 271.29 592.72 295.87 588.56 304.92 601.14 316.77 606.57 309.07"/><polygon class="cls-10" points="532.03 519.35 557.63 506.75 536.09 468.97 530.76 474.53 530.76 503.08 532.03 519.35"/><polygon class="cls-10" points="659.3 441.1 631.44 469.71 645.37 490.91 654.7 466.01 659.3 441.1"/><polygon class="cls-10" points="613.56 479.79 574.23 512.12 601.14 546.17 628.14 512.98 613.56 479.79"/><polygon class="cls-10" points="561.03 515.24 590.18 553.88 561.03 580.28 536.09 529.84 561.03 515.24"/><polygon class="cls-10" points="597.34 563.5 563.13 588.22 585.23 620.44 613.29 596.78 597.34 563.5"/><polygon class="cls-10" points="606.57 555.52 636.28 529.84 628.14 558.19 622.09 581.93 606.57 555.52"/><polygon class="cls-10" points="542.32 596.23 552.41 588.22 573.56 622.64 552.5 633.78 546.93 629.79 541.01 611 542.32 596.23"/></g><g id="ремень"><polygon class="cls-11" points="449.9 570.32 478.19 566.45 506.01 561.58 544.2 563.5 579.38 563.65 601.18 565.95 623.87 565.95 634.49 534.25 603.39 529.84 574.23 529.84 503.97 529.84 478.19 529.84 459.54 529.84 444.4 536.27 449.9 570.32"/></g><g id="пряжка"><polygon class="cls-12" points="508.76 573.13 573.56 573.13 573.56 515.24 506.01 515.24 506.01 573.13 508.76 573.13"/></g><g id="галстук"><polygon class="cls-8" points="536.25 550.08 601.14 506.75 547.32 261.39 478.19 508.76 536.25 550.08"/></g><g id="брюки"><polygon class="cls-5" points="620.48 663.72 597.88 688.65 583.03 704.42 573.56 732.12 563.13 765.67 563.13 787.13 563.13 795.93 553.71 801.98 542.32 801.98 536.09 801.98 526.86 795.38 523.62 807.48 512.71 816.28 498.31 816.28 486.21 808.58 478.19 793.18 478.19 776.67 478.19 765.67 478.19 755.77 474.66 740 474.66 730.47 474.66 716.71 474.66 704.42 464.2 688.11 457.05 680.4 453.44 674.72 457.52 641.35 457.23 629.79 517.84 628.42 538.2 607.79 547.55 632.27 561.03 636.39 588.81 635.2 603.14 629.79 614.66 621.54 620.29 613.02 619.34 638.59 620.48 663.72"/></g><g id="брюки_-_линия" data-name="брюки - линия"><polyline class="cls-13" points="499.96 674.72 529.85 694.71 561.03 674.72 529.85 699.11 529.85 728.81 526.86 748.07 526.86 763.47 529.85 776.13 530.5 786.58 526.86 795.38"/></g><g id="ботинки"><polygon class="cls-2" points="486.21 808.58 478.19 816.28 478.19 825.64 491.71 830.04 491.71 844.89 484.95 854.79 482.36 865.79 482.36 873.5 484.95 881.2 484.95 889.45 478.19 895.5 461.45 898.8 443.85 901.55 425.15 907.05 411.94 911.46 403.69 917.51 394.15 917.51 373.43 917.51 351.98 917.51 340.98 921.36 325.02 931.26 320.62 945.01 308.52 949.96 290.92 952.16 281.01 961.52 281.01 975.27 290.92 986.82 307.42 986.82 327.22 986.82 351.98 986.82 369.58 991.77 383.89 987.92 404.24 986.82 421.3 982.97 448.8 975.27 460.35 970.87 474.66 966.47 489.51 970.87 499.96 975.82 506.56 975.82 520.32 969.22 530.5 963.72 536.96 956.57 561.03 964.27 579.18 963.72 594.58 970.32 611.09 971.42 640.24 976.92 653.45 979.67 680.95 980.22 705.71 976.37 724.41 967.57 732.66 956.02 732.66 946.66 716.71 940.06 696.91 938.96 683.15 923.56 671.05 914.76 646.85 912.56 620.48 909.8 606.57 910.36 594.03 911.46 593.48 900.18 573.68 894.4 557.73 890.55 545.62 882.3 542.87 863.04 549.47 850.39 550.02 833.34 550.57 821.24 553.71 810.78 558.83 805.28 553.71 801.98 536.09 801.98 526.86 795.38 523.62 807.48 512.71 816.28 498.31 816.28 486.21 808.58"/></g><g id="ботинки_-_линия" data-name="ботинки - линия"><polyline class="cls-4" points="525.76 966.28 519.22 947.21 530.5 938.41 524.86 913.11 522.52 890 519.22 866.89 524.86 850.39 530.5 830.04 527.47 812.43 526.86 795.38"/></g><g id="ботинки_-_бряжки" data-name="ботинки - бряжки"><polygon class="cls-14" points="594.03 911.46 581.93 920.26 565.98 925.21 543.97 921.91 534.07 918.33 534.07 907.05 542.87 898.25 545.07 904.85 557.18 906.5 567.08 905.4 575.33 902.1 581.93 904.3 593.66 903.72 594.03 911.46"/><polygon class="cls-14" points="398.46 920.81 415.24 932.91 432.85 945.01 453.44 945.01 470.26 938.96 483.46 932.91 483.46 925.21 478.19 916.41 465.31 908.15 456.5 903.75 449.9 903.75 448.25 911.73 456.5 911.73 457.6 918.06 447.7 924.38 438.9 925.21 430.65 919.16 417.44 915.31 411.94 911.46 403.69 917.51 398.46 917.51 398.46 920.81"/></g><g id="ботинки_-_пряжка_-_линии" data-name="ботинки - пряжка - линии"><polyline class="cls-3" points="405.57 916.13 417.44 924.38 429 934.01 436.17 936.21 450.45 931.81 465.31 929.06 473.01 926.17 481.52 921.97"/><polyline class="cls-3" points="581.93 904.3 580.83 909.25 575.88 913.93 567.63 916.13 553.71 916.13 536.96 911.73 534.07 910.22"/><line class="cls-3" x1="576.1" y1="922.07" x2="572.03" y2="916.13"/></g><g id="ботинки_-_линия_2" data-name="ботинки - линия 2"><polygon class="cls-3" points="286.38 956.45 290.37 969.22 308.52 974.72 328.87 974.72 345.38 977.47 367.38 977.47 387.19 970.87 405.57 969.22 421.85 963.17 436.17 961.52 443.55 956.45 462.55 953.26 478.19 945.01 493.36 945.01 506.84 945.01 519.22 947.21 525.76 966.28 506.56 975.82 499.96 975.82 474.66 966.47 448.8 975.27 425.29 981.85 404.24 986.82 383.89 987.92 369.58 991.77 351.98 986.82 290.92 986.82 281.01 975.27 281.01 961.52 286.38 956.45"/><polygon class="cls-3" points="530.5 938.41 553.71 948.31 572.03 948.31 601.14 953.26 629.79 960.42 657.3 960.42 680.95 966.28 699.66 960.42 715.06 957.67 722.76 949.96 728.68 945.01 732.66 946.66 732.66 956.02 724.41 967.57 707.99 975.3 680.95 980.22 653.45 979.67 611.09 971.42 594.58 970.32 579.18 963.72 558 963.3 536.96 956.57 524.86 963.64 519.22 947.21 530.5 938.41"/></g><g id="голова"><polygon class="cls-15" points="531.87 261.39 542.32 261.39 553.71 261.39 569.83 261.39 585.23 253.51 601.14 243.48 613.56 233.09 624.29 219.4 627.41 206.2 627.41 198.68 628.14 189.69 634.74 177.59 634.74 162.74 632.54 148.43 628.14 136.33 623.19 124.23 622.09 114.33 620.99 103.32 611.09 73.62 606.57 56.56 593.67 37.31 580.46 22.45 562.13 13.65 539.71 13.65 527.47 19.7 511.31 36.21 497.76 52.16 486.21 68.67 478.19 84.62 468.06 104.97 462 125.33 462 140.18 459.54 160.54 455.95 174.84 455.95 185.29 458.71 195.85 468.36 207.77 473.01 220.32 477.7 234.76 493.68 243.55 511.31 252.51 521.97 255.16 531.87 261.39"/></g><g id="зубы"><polygon class="cls-16" points="511.31 205.1 526.92 217.2 547.32 217.2 564.88 217.2 573.68 211.15 580.46 208.4 589.63 192.81 593.67 179.24 596.78 161.09 604.3 150.63 601.14 140.73 589.63 137.52 578.08 144.58 561.58 151.18 553.71 153.38 534.07 150.08 521.97 146.23 507.11 140.73 495.56 141.83 490.06 152.83 495.56 165.49 500.51 177.36 506.01 192.81 511.31 205.1"/></g><g id="зубы-линии"><polyline class="cls-3" points="524.28 146.97 519.22 159.99 519.22 177.36 521.75 190.24 524.28 200.69 521.75 213.19"/><polyline class="cls-3" points="553.71 153.38 553.71 177.36 551.12 192.81 551.12 205.65 551.12 215"/><polyline class="cls-3" points="578.08 144.58 580.46 161.09 579.27 180.08 578.08 192.81 578.08 203.45 578.08 209.36"/><polyline class="cls-3" points="506.01 192.81 519.22 201.79 539.71 204.55 557.18 204.55 569.83 201.79 582.48 198.68 589.63 192.81"/></g><g id="нос"><polygon class="cls-17" points="517.02 106.07 524.28 120.93 532.42 134.13 539.71 140.18 551.12 144.58 561.03 141.28 574.23 125.33 578.08 118.18 580.46 106.07 586.33 102.22 593.67 95.62 589.63 81.87 585.23 76.37 579.27 76.37 578.08 84.07 573.68 68.67 564.88 59.31 559.93 59.31 551.12 57.66 539.71 60.41 534.62 67.56 528.57 74.17 528.02 78.02 517.02 78.02 511.31 79.12 508.21 87.92 506.01 96.17 511.31 103.87 517.02 106.07"/></g><g id="нос-линия"><polyline class="cls-3" points="529.12 107.72 529.12 92.32 529.12 82.97 528.02 78.02"/></g><g id="правый_глаз" data-name="правый глаз"><path class="cls-18" d="M626,66.59c1.1,6.75-4.63,11-12.36,12.3s-14.52-1-15.62-7.74,4.28-13.24,12-14.49S624.86,59.85,626,66.59Z" transform="translate(-71.11 -16.59)"/></g><g id="глаза_-_зрачок" data-name="глаза - зрачок"><circle cx="540.44" cy="51.24" r="4.91"/><circle cx="561.53" cy="48.98" r="4.91"/></g><g id="левый_глаз" data-name="левый глаз"><path class="cls-18" d="M645.62,64.83c.62,6-4.6,10.39-11.1,11.07s-11.8-2.61-12.43-8.61,4.13-11.4,10.62-12.08S645,58.83,645.62,64.83Z" transform="translate(-71.11 -16.59)"/></g><g id="глаза_-_треугольники" data-name="глаза - треугольники"><polygon class="cls-19" points="540.44 51.24 535.54 44.07 530.5 50.37 540.44 51.24"/><polygon class="cls-19" points="561.53 48.98 559.24 41.71 554.15 45.34 554.98 48.17 561.53 48.98"/></g><g id="глаза_-_миски" data-name="глаза - миски"><polyline class="cls-20" points="535.54 51.24 540.86 51.24 537.67 47.2"/><polyline class="cls-20" points="560.61 44.07 561.53 48.98 556.63 48.98"/><line class="cls-21" x1="532.97" y1="53.88" x2="533.8" y2="55.19"/><line class="cls-21" x1="534.69" y1="55.74" x2="536" y2="56.49"/><line class="cls-21" x1="534.28" y1="53.88" x2="535.34" y2="55.19"/><line class="cls-21" x1="536.82" y1="55.74" x2="537.58" y2="56.15"/><line class="cls-21" x1="537.2" y1="56.84" x2="538.61" y2="57.25"/><line class="cls-21" x1="539.16" y1="56.49" x2="540.86" y2="56.49"/><line class="cls-21" x1="540.44" y1="57.25" x2="541.84" y2="57.04"/><line class="cls-21" x1="542.53" y1="56.49" x2="543.63" y2="55.74"/><line class="cls-21" x1="544.45" y1="55.74" x2="545.35" y2="54.84"/><line class="cls-21" x1="545.35" y1="53.88" x2="546.1" y2="52.85"/><line class="cls-21" x1="546.52" y1="53.36" x2="547.14" y2="52.16"/><polyline class="cls-21" points="545.73 52.16 546.1 51.24 546.1 50.51"/><line class="cls-21" x1="557.45" y1="53.36" x2="558.14" y2="53.88"/><line class="cls-21" x1="557.79" y1="54.36" x2="558.38" y2="54.79"/><line class="cls-21" x1="558.84" y1="54.05" x2="559.63" y2="54.43"/><line class="cls-21" x1="559.1" y1="54.79" x2="559.98" y2="55.26"/><line class="cls-21" x1="560.27" y1="54.36" x2="561.15" y2="54.5"/><line class="cls-21" x1="560.51" y1="55.26" x2="561.44" y2="55.43"/><line class="cls-21" x1="561.53" y1="54.88" x2="562.49" y2="54.65"/><line class="cls-21" x1="562.97" y1="55.1" x2="563.79" y2="54.77"/><line class="cls-21" x1="563.38" y1="54.24" x2="564.22" y2="53.78"/><line class="cls-21" x1="564.72" y1="54.24" x2="565.6" y2="53.78"/><line class="cls-21" x1="564.98" y1="53.24" x2="565.82" y2="52.71"/><polyline class="cls-21" points="566.06 53.47 566.65 53.05 566.77 52.71"/><polyline class="cls-21" points="566.29 52.23 566.96 51.8 567.1 51.32"/></g><g id="волосы"><polygon class="cls-22" points="544.45 33.27 559.54 31.44 563.79 27.41 567.1 24.47 574.56 22.64 580.46 22.45 583.79 26.2 593.67 37.31 585.6 13.65 575.7 6.5 563.79 3.93 551.12 1 541.14 1 530.59 3.57 519.49 6.56 514.02 10.04 510.05 13.65 506.01 18.05 507.72 38.55 517.38 26.31 521.75 23.37 528.57 25.57 532.97 27.77 536.82 29.97 540.86 30.71 544.45 33.27"/></g><g id="волосы_-_линии" data-name="волосы - линии"><polyline class="cls-23" points="539.16 25.2 537.2 19.89 526.73 13.65 521.75 13.65"/><polyline class="cls-23" points="545.73 25.2 543.08 17.87 539.71 13.65 535.54 10.9"/><polyline class="cls-23" points="559.54 23 564.22 18.05 571.66 16.04"/><polyline class="cls-23" points="551.12 19.89 554.98 13.65 561.53 10.9"/></g><g id="манжеты"><polygon class="cls-24" points="175.28 436.75 185.26 450.83 199.41 443.48 208.13 434.11 215.03 423.44 219.77 416.84 222.52 406.44 220.73 399.42 218.12 395.62 212.16 384.74 210.05 400.39 200.15 414.14 195.01 424.6 183.64 435.6 175.28 436.75"/><polygon class="cls-24" points="904.3 402.04 896.53 406.04 894.03 420.19 896.47 429.82 895.5 435.23 899.9 443.34 919.42 452.85 927.78 456.5 931.95 452.93 932.18 444.4 921.65 436.27 912.37 424.12 908.83 418.29 905.04 405.52 904.3 402.04"/></g><g id="голова_-_скулы" data-name="голова - скулы"><polyline class="cls-3" points="502.71 110.47 491.71 124.23 486.76 135.23 482.91 144.58"/><polyline class="cls-3" points="589.63 110.47 593.67 124.23 601.14 135.23"/></g></svg>